<?xml version="1.0" encoding="utf-8"?>
<!-- Generator: Adobe Illustrator 27.5.0, SVG Export Plug-In . SVG Version: 6.00 Build 0)  -->
<svg version="1.1" id="Layer_1" xmlns="http://www.w3.org/2000/svg" xmlns:xlink="http://www.w3.org/1999/xlink" x="0px" y="0px"
	 viewBox="0 0 2122 2122" style="enable-background:new 0 0 2122 2122;" xml:space="preserve">
<g>
	<rect style="fill:#F7F7F7;" width="2121.32" height="2121.32"/>
	<path style="fill:#FF5E6B;" d="M1508.468,1152.664l221.48,157.493l-7.334-461.252l-216.359,164.454l-63.561,1.011l-1.753-110.283
		c-0.087-5.458-0.99-10.705-2.532-15.668c16.129-17.426,30.046-37.437,41.007-59.869c60.332-123.482,9.139-272.493-114.344-332.826
		c-123.482-60.332-272.493-9.139-332.826,114.343c-39.733,81.321-31.079,173.702,14.72,244.548l-84.152,1.338
		c22.176-35.495,34.761-77.549,34.046-122.511c-1.974-124.166-104.231-223.222-228.396-221.248
		c-124.166,1.975-223.221,104.231-221.247,228.397c1.185,74.565,38.563,140.04,95.107,180.052l0.698,43.922l-64.484-5.994
		l0.246-2.649c0.404-4.342-2.789-8.189-7.131-8.593l-76.069-7.071c-4.342-0.404-8.189,2.789-8.593,7.131l-2.607,28.045
		c-0.404,4.342,2.789,8.189,7.131,8.593l76.07,7.071c4.342,0.404,8.189-2.789,8.593-7.131l0.304-3.267l66.897,6.218l1.137,71.494
		l-17.703,0.282c-13.945,0.221-25.069,11.705-24.847,25.649l0.393,24.669l-45.564,0.725c-10.098,0.161-18.154,8.476-17.994,18.574
		l1.08,67.911c0.161,10.098,8.477,18.154,18.575,17.993l45.564-0.724l0.392,24.668c0.222,13.945,11.706,25.069,25.65,24.848
		l17.703-0.281l0.849,53.4c0.489,30.775,25.834,55.325,56.608,54.836l261.776-4.162l0.461,29.022l-5.224,0.083
		c-15.387,0.245-27.662,12.917-27.418,28.304l0.074,4.651l-174.985,44.714l-0.93-3.636c-1.523-5.96-7.589-9.556-13.549-8.034
		l-104.404,26.678c-5.96,1.523-9.556,7.589-8.034,13.548l9.835,38.491c1.523,5.96,7.589,9.556,13.548,8.033l104.404-26.678
		c5.959-1.523,9.556-7.588,8.033-13.549l-1.145-4.483l167.736-42.861l0.448,28.132c0.245,15.388,12.917,27.663,28.304,27.418
		l174.13-2.769c15.387-0.245,27.663-12.917,27.418-28.303l-1.033-65.009c-0.245-15.387-12.917-27.663-28.304-27.418l-5.224,0.083
		l-0.461-29.022l261.776-4.162c30.775-0.489,55.325-25.833,54.836-56.608l-2.381-149.752L1508.468,1152.664z M1465.135,755.078
		c-3.39,19.85-9.603,39.217-18.511,57.451c-8.152,16.685-18.534,32.095-30.625,46.003c-9.063-6.018-19.965-9.466-31.664-9.28
		l-10.57,0.168l-1.893-2.812c15.618-14.227,28.893-31.544,38.731-51.68c9.838-20.136,15.341-41.252,16.965-62.315l16.427-1.137
		C1457.046,730.573,1467.337,742.181,1465.135,755.078z M1391.483,556.007c31.099,25.928,54.276,60.366,66.619,98.99
		c3.989,12.484-4.595,25.435-17.67,26.34l-16.372,1.133c-9.193-41.844-33.82-79.932-70.837-105.24l7.207-14.753
		C1366.185,550.702,1381.416,547.614,1391.483,556.007z M1182.257,520.221c38.055-14,79.465-16.882,119.032-8.282
		c12.807,2.784,19.732,16.697,13.978,28.473l-7.208,14.752c-42.713-13.648-87.893-9.668-126.552,8.796l-9.169-13.613
		C1165.016,539.476,1169.957,524.746,1182.257,520.221z M1046.528,683.542c3.39-19.85,9.603-39.219,18.511-57.452
		c8.908-18.233,20.369-35.038,33.946-49.911c8.82-9.663,24.301-8.678,31.611,2.174l9.198,13.657
		c-15.618,14.228-28.893,31.546-38.732,51.682c-9.838,20.136-15.341,41.251-16.966,62.315l-16.427,1.137
		C1054.617,708.047,1044.325,696.44,1046.528,683.542z M1053.561,783.622c-3.989-12.484,4.595-25.434,17.67-26.34l16.372-1.133
		c8.231,37.469,28.855,71.905,59.656,96.872l-55.364,0.88C1074.912,833.162,1061.786,809.359,1053.561,783.622z M870.616,857.419
		c9.259-7.59,17.617-16.22,24.908-25.716l12.959,7.21c6.693,3.724,9.852,10.842,9.115,17.759L870.616,857.419z M928.576,669.76
		c10.143-6.073,23.186-0.938,26.693,10.352c5.398,17.376,8.326,35.52,8.618,53.854c0.291,18.334-2.058,36.562-6.902,54.101
		c-3.147,11.396-16.019,16.943-26.35,11.195l-13.002-7.233c6.753-17.854,10.354-37.24,10.032-57.487
		c-0.323-20.247-4.537-39.508-11.854-57.139L928.576,669.76z M814.422,549.933c35.668,8.147,68.438,26.393,94.197,52.449
		c8.326,8.422,6.716,22.368-3.445,28.451l-12.724,7.618c-24.539-29.939-59.974-50.531-100.153-55.755l-0.236-14.834
		C791.874,556.02,802.877,547.295,814.422,549.933z M631.247,606.791c24.917-26.86,57.092-46.139,92.482-55.417
		c11.456-3.003,22.731,5.367,22.919,17.209l0.236,14.834c-39.993,6.5-74.754,28.207-98.33,58.911l-12.959-7.21
		C625.247,629.361,623.193,615.473,631.247,606.791z M615.502,804.274c-10.143,6.073-23.186,0.938-26.694-10.352
		c-5.399-17.376-8.326-35.521-8.618-53.855c-0.292-18.334,2.057-36.563,6.902-54.102c3.147-11.396,16.019-16.943,26.351-11.194
		l13.001,7.233c-6.753,17.855-10.354,37.24-10.031,57.488c0.322,20.248,4.537,39.509,11.854,57.139L615.502,804.274z M638.903,843.2
		l12.723-7.618c8.446,10.305,18.16,19.521,28.941,27.365c-12.239,4.022-22.575,12.168-29.419,22.764
		c-5.445-4.419-10.734-9.047-15.69-14.06C627.133,863.229,628.743,849.283,638.903,843.2z"/>
	<path style="fill:#00A6FF;" d="M1447.715,1190.635l221.479,157.493l-7.333-461.252l-216.359,164.454l-63.56,1.011l-1.754-110.283
		c-0.087-5.458-0.989-10.706-2.532-15.668c16.129-17.426,30.046-37.437,41.006-59.869c60.332-123.482,9.139-272.493-114.343-332.826
		s-272.493-9.139-332.826,114.343c-39.733,81.32-31.08,173.702,14.719,244.548l-84.152,1.338
		c22.176-35.495,34.762-77.549,34.047-122.511c-1.974-124.166-104.231-223.222-228.396-221.248
		c-124.166,1.974-223.221,104.231-221.248,228.397c1.186,74.565,38.564,140.04,95.108,180.052l0.698,43.922l-64.484-5.994
		l0.246-2.649c0.404-4.342-2.789-8.189-7.131-8.593l-76.069-7.071c-4.342-0.404-8.19,2.789-8.594,7.132l-2.607,28.045
		c-0.404,4.342,2.789,8.189,7.131,8.593l76.069,7.071c4.342,0.404,8.19-2.789,8.593-7.131l0.304-3.267l66.897,6.218l1.137,71.494
		l-17.703,0.281c-13.945,0.222-25.07,11.706-24.847,25.65l0.392,24.669l-45.564,0.725c-10.098,0.161-18.154,8.476-17.993,18.574
		l1.08,67.911c0.161,10.098,8.477,18.154,18.574,17.993l45.564-0.725l0.393,24.669c0.222,13.945,11.706,25.069,25.65,24.847
		l17.703-0.281l0.849,53.4c0.49,30.774,25.834,55.325,56.608,54.836l261.776-4.162l0.461,29.022l-5.224,0.083
		c-15.387,0.245-27.663,12.916-27.418,28.304l0.074,4.651l-174.985,44.714l-0.929-3.636c-1.523-5.96-7.589-9.556-13.549-8.034
		l-104.404,26.679c-5.96,1.522-9.556,7.588-8.034,13.548l9.836,38.491c1.522,5.96,7.588,9.556,13.548,8.033l104.404-26.678
		c5.96-1.522,9.556-7.588,8.034-13.548l-1.146-4.483l167.737-42.861l0.448,28.133c0.245,15.388,12.917,27.663,28.303,27.418
		l174.13-2.769c15.388-0.245,27.663-12.917,27.418-28.303l-1.033-65.009c-0.245-15.387-12.917-27.663-28.303-27.418l-5.224,0.083
		l-0.461-29.022l261.776-4.162c30.775-0.489,55.325-25.834,54.835-56.608l-2.381-149.752L1447.715,1190.635z M1404.382,793.049
		c-3.39,19.85-9.603,39.217-18.512,57.45c-8.152,16.685-18.533,32.096-30.625,46.004c-9.062-6.018-19.965-9.466-31.664-9.281
		l-10.57,0.169l-1.893-2.811c15.617-14.227,28.893-31.544,38.731-51.68c9.838-20.136,15.34-41.252,16.965-62.315l16.426-1.136
		C1396.293,768.544,1406.584,780.152,1404.382,793.049z M1330.729,593.978c31.1,25.928,54.276,60.366,66.619,98.991
		c3.99,12.484-4.594,25.434-17.669,26.339l-16.373,1.134c-9.192-41.844-33.82-79.931-70.837-105.239l7.208-14.753
		C1305.432,588.672,1320.663,585.585,1330.729,593.978z M1121.504,558.192c38.054-14.001,79.465-16.881,119.032-8.282
		c12.807,2.784,19.732,16.696,13.978,28.473l-7.208,14.752c-42.714-13.648-87.894-9.668-126.552,8.795l-9.169-13.612
		C1104.263,577.447,1109.204,562.716,1121.504,558.192z M985.774,721.513c3.39-19.85,9.603-39.219,18.512-57.452
		c8.908-18.233,20.369-35.037,33.945-49.911c8.82-9.663,24.302-8.679,31.611,2.173l9.198,13.657
		c-15.618,14.228-28.893,31.545-38.732,51.681c-9.838,20.136-15.34,41.252-16.965,62.315l-16.427,1.137
		C993.863,746.018,983.572,734.411,985.774,721.513z M992.808,821.593c-3.989-12.484,4.594-25.435,17.67-26.34l16.372-1.133
		c8.231,37.469,28.854,71.905,59.656,96.872l-55.364,0.88C1014.159,871.133,1001.033,847.329,992.808,821.593z M809.862,895.39
		c9.259-7.59,17.617-16.22,24.909-25.716l12.959,7.21c6.693,3.724,9.852,10.842,9.114,17.759L809.862,895.39z M867.823,707.731
		c10.143-6.073,23.186-0.938,26.693,10.352c5.398,17.376,8.325,35.52,8.617,53.854c0.292,18.334-2.057,36.562-6.901,54.101
		c-3.147,11.396-16.02,16.943-26.35,11.195l-13.002-7.234c6.753-17.855,10.354-37.24,10.031-57.486
		c-0.322-20.247-4.537-39.508-11.854-57.139L867.823,707.731z M753.669,587.904c35.667,8.147,68.438,26.393,94.197,52.449
		c8.325,8.421,6.715,22.368-3.445,28.451l-12.724,7.618c-24.539-29.939-59.974-50.531-100.153-55.755l-0.236-14.834
		C731.12,593.99,742.124,585.266,753.669,587.904z M570.494,644.762c24.917-26.86,57.091-46.139,92.482-55.417
		c11.456-3.003,22.73,5.367,22.918,17.209l0.237,14.834c-39.993,6.5-74.755,28.207-98.33,58.91l-12.96-7.209
		C564.493,667.332,562.44,653.444,570.494,644.762z M554.748,842.245c-10.143,6.073-23.186,0.938-26.693-10.352
		c-5.399-17.377-8.327-35.522-8.618-53.855c-0.292-18.334,2.057-36.563,6.901-54.103c3.147-11.396,16.02-16.943,26.351-11.194
		l13.002,7.233c-6.753,17.855-10.354,37.24-10.032,57.488c0.322,20.248,4.537,39.509,11.854,57.139L554.748,842.245z
		 M578.15,881.171l12.723-7.618c8.446,10.305,18.161,19.522,28.942,27.366c-12.24,4.021-22.576,12.167-29.419,22.764
		c-5.446-4.419-10.735-9.047-15.691-14.06C566.38,901.2,567.989,887.254,578.15,881.171z"/>
	<path style="fill:#0A0909;" d="M1476.573,1172.409l221.479,157.493l-7.334-461.252l-216.359,164.455l-63.56,1.01l-1.754-110.282
		c-0.087-5.459-0.99-10.706-2.532-15.668c16.129-17.426,30.045-37.437,41.006-59.87c60.332-123.482,9.139-272.493-114.344-332.826
		c-123.481-60.332-272.493-9.139-332.826,114.344c-39.732,81.32-31.079,173.702,14.72,244.547l-84.152,1.338
		c22.176-35.495,34.761-77.549,34.047-122.511C962.99,629.021,860.734,529.966,736.569,531.94
		c-124.166,1.974-223.222,104.23-221.248,228.396c1.186,74.566,38.564,140.041,95.107,180.052l0.698,43.922l-64.484-5.993
		l0.247-2.65c0.404-4.342-2.789-8.189-7.132-8.593l-76.07-7.071c-4.342-0.404-8.189,2.789-8.593,7.131l-2.607,28.045
		c-0.404,4.343,2.789,8.189,7.132,8.593l76.069,7.071c4.342,0.404,8.189-2.789,8.593-7.131l0.304-3.267l66.897,6.219l1.137,71.494
		l-17.703,0.281c-13.945,0.222-25.069,11.705-24.847,25.65l0.392,24.669l-45.564,0.724c-10.098,0.161-18.153,8.477-17.993,18.575
		l1.08,67.911c0.16,10.098,8.476,18.154,18.574,17.993l45.564-0.725l0.392,24.669c0.223,13.944,11.706,25.068,25.65,24.847
		l17.703-0.282l0.849,53.401c0.49,30.774,25.834,55.325,56.608,54.835l261.776-4.162l0.462,29.022l-5.224,0.083
		c-15.388,0.244-27.663,12.917-27.418,28.303l0.074,4.652l-174.985,44.714l-0.93-3.636c-1.523-5.96-7.589-9.556-13.548-8.034
		l-104.404,26.678c-5.96,1.523-9.556,7.589-8.034,13.548l9.835,38.491c1.523,5.96,7.589,9.556,13.548,8.034l104.404-26.678
		c5.96-1.523,9.556-7.589,8.033-13.548l-1.145-4.484l167.737-42.861l0.447,28.133c0.245,15.387,12.917,27.663,28.304,27.418
		l174.13-2.769c15.387-0.245,27.663-12.917,27.418-28.304l-1.033-65.008c-0.245-15.388-12.917-27.663-28.304-27.418l-5.224,0.083
		l-0.462-29.022l261.776-4.162c30.775-0.489,55.325-25.833,54.836-56.608l-2.381-149.752L1476.573,1172.409z M1433.239,774.823
		c-3.39,19.851-9.603,39.218-18.512,57.451c-8.152,16.685-18.533,32.095-30.625,46.004c-9.062-6.018-19.965-9.467-31.664-9.281
		l-10.57,0.168l-1.893-2.811c15.617-14.227,28.893-31.544,38.73-51.68c9.838-20.136,15.34-41.252,16.966-62.315l16.426-1.137
		C1425.151,750.318,1435.442,761.925,1433.239,774.823z M1359.587,575.752c31.1,25.928,54.276,60.366,66.619,98.99
		c3.989,12.484-4.595,25.435-17.67,26.34l-16.372,1.134c-9.192-41.844-33.82-79.931-70.837-105.24l7.207-14.752
		C1334.289,570.447,1349.521,567.359,1359.587,575.752z M1150.361,539.965c38.055-14,79.465-16.881,119.032-8.281
		c12.808,2.784,19.732,16.696,13.979,28.472l-7.208,14.753c-42.714-13.649-87.894-9.668-126.553,8.795l-9.168-13.613
		C1133.121,559.221,1138.062,544.491,1150.361,539.965z M1014.632,703.287c3.391-19.851,9.603-39.219,18.512-57.452
		c8.909-18.233,20.37-35.037,33.946-49.911c8.82-9.664,24.302-8.679,31.611,2.173l9.198,13.658
		c-15.618,14.227-28.894,31.545-38.732,51.681c-9.838,20.136-15.341,41.252-16.965,62.316l-16.427,1.137
		C1022.721,727.791,1012.43,716.184,1014.632,703.287z M1021.666,803.367c-3.989-12.483,4.594-25.434,17.669-26.339l16.373-1.134
		c8.231,37.469,28.855,71.905,59.656,96.871L1060,873.647C1043.017,852.907,1029.891,829.103,1021.666,803.367z M838.72,877.164
		c9.259-7.59,17.617-16.22,24.909-25.716l12.958,7.21c6.693,3.724,9.852,10.841,9.115,17.759L838.72,877.164z M896.68,689.505
		c10.143-6.074,23.187-0.938,26.693,10.352c5.398,17.376,8.326,35.52,8.618,53.854c0.291,18.334-2.057,36.561-6.901,54.1
		c-3.147,11.396-16.02,16.943-26.351,11.195l-13.001-7.233c6.753-17.854,10.353-37.24,10.031-57.486
		c-0.322-20.248-4.537-39.508-11.854-57.139L896.68,689.505z M782.527,569.678c35.667,8.147,68.438,26.394,94.197,52.449
		c8.326,8.422,6.715,22.369-3.445,28.451l-12.723,7.618c-24.54-29.939-59.974-50.531-100.153-55.756l-0.236-14.834
		C759.978,575.765,770.981,567.04,782.527,569.678z M599.352,626.536c24.917-26.861,57.091-46.139,92.482-55.417
		c11.457-3.004,22.731,5.367,22.919,17.208l0.236,14.834c-39.992,6.5-74.754,28.207-98.33,58.91l-12.959-7.21
		C593.351,649.106,591.297,635.218,599.352,626.536z M583.606,824.019c-10.143,6.072-23.186,0.938-26.694-10.352
		c-5.399-17.377-8.326-35.522-8.618-53.856c-0.292-18.334,2.058-36.563,6.902-54.102c3.147-11.395,16.02-16.943,26.351-11.195
		l13.002,7.234c-6.753,17.854-10.354,37.24-10.032,57.488c0.322,20.247,4.537,39.508,11.854,57.139L583.606,824.019z
		 M607.008,862.944l12.723-7.618c8.446,10.305,18.16,19.522,28.941,27.365c-12.239,4.022-22.575,12.168-29.419,22.764
		c-5.445-4.419-10.734-9.047-15.69-14.06C595.237,882.974,596.847,869.028,607.008,862.944z"/>
	<g>
		<g>
			<path style="fill:#F7F7F7;" d="M790.989,995.338c0,1.137-0.538,2.048-1.616,2.048c-1.346,0-1.886-1.139-2.154-2.504
				c-3.234-19.11-11.045-46.185-24.782-46.185c-11.851,0-14.004,21.614-14.004,69.62c0,68.254,5.925,78.266,18.046,78.266
				c14.812,0,20.47-41.864,20.47-43.911c0-1.136,0.808-1.821,2.154-1.821c1.348,0,1.886,0.684,1.886,2.049
				c0,33.671-5.926,55.059-29.628,55.059c-31.515,0-35.017-51.874-35.017-89.87c0-27.984,1.348-80.768,35.017-80.768
				c4.31,0,8.887,2.049,12.929,4.779c1.616,1.137,3.232,1.365,4.578,1.365c1.348,0,3.233-0.91,5.118-2.73
				c1.618-1.592,3.771-3.414,5.117-3.414c1.618,0,1.886,1.593,1.886,3.869V995.338z"/>
			<path style="fill:#F7F7F7;" d="M821.156,953.701c0-2.73-0.54-4.779-2.423-6.37l-8.082-6.598
				c-0.538-0.682-1.886-1.365-1.886-2.049c0-0.682,0.54-1.365,1.615-1.365h42.289c1.078,0,1.616,0.683,1.616,1.365
				c0,0.684-1.346,1.367-1.884,2.049l-8.082,6.598c-1.886,1.591-2.423,3.64-2.423,6.37v137.875c0,2.731,0.538,4.779,2.423,6.371
				l8.082,6.598c0.538,0.683,1.884,1.365,1.884,2.048c0,0.682-0.538,1.365-1.616,1.365H810.38c-1.075,0-1.615-0.683-1.615-1.365
				c0-0.683,1.348-1.365,1.886-2.048l8.082-6.598c1.883-1.592,2.423-3.64,2.423-6.371V953.701z"/>
			<path style="fill:#F7F7F7;" d="M879.873,953.701c0-2.73-0.808-4.551-2.424-6.37l-6.734-6.598
				c-0.538-0.682-1.886-1.365-1.886-2.275c0-0.456,0.54-1.139,1.616-1.139h32.323c1.886,0,2.694,1.593,3.232,3.869l24.78,97.833
				h0.54v-85.32c0-2.73-0.54-4.551-2.424-6.144l-7.543-6.824c-0.538-0.682-1.883-1.365-1.883-2.275c0-0.456,0.538-1.139,1.615-1.139
				h35.553c1.078,0,1.616,0.683,1.616,1.139c0,0.91-1.076,1.593-1.883,2.275l-6.736,6.598c-1.616,1.819-2.423,3.64-2.423,6.37
				v151.753c0,1.593-0.808,2.504-2.694,2.504h-11.311c-2.425,0-4.579-2.276-5.387-5.688l-31.516-123.997h-0.538v113.303
				c0,2.731,0.808,4.551,2.694,6.144l7.271,6.826c0.808,0.683,1.886,1.365,1.886,2.275c0,0.454-0.538,1.137-1.615,1.137h-35.555
				c-1.076,0-1.616-0.683-1.616-1.137c0-0.91,1.348-1.593,1.886-2.275l6.734-6.598c1.616-1.821,2.424-3.64,2.424-6.371V953.701z"/>
			<path style="fill:#F7F7F7;" d="M1005.927,1015.358h5.926c1.346,0,2.423-0.455,2.963-1.593l9.427-15.925
				c0.538-0.91,0.808-1.365,1.616-1.365s1.075,0.454,1.075,1.365v48.234c0,0.683-0.267,1.137-1.075,1.137
				c-1.078,0-1.348-0.683-1.886-1.592l-9.158-16.61c-0.54-1.137-1.617-1.592-2.963-1.592h-5.926v69.165h15.352
				c3.502,0,6.196-1.365,7.274-4.096l14.545-43.684c0.267-0.91,1.075-1.365,1.883-1.365c0.81,0,1.348,0.683,1.348,1.365v57.108
				c0,1.136-0.808,2.048-2.156,2.048h-69.762c-1.075,0-1.615-0.683-1.615-1.365c0-0.683,1.348-1.139,1.886-2.048l8.082-6.598
				c1.883-1.592,2.423-3.64,2.423-6.371V953.701c0-2.73-0.54-4.779-2.423-6.37l-8.082-6.598c-0.538-0.682-1.886-1.365-1.886-2.049
				c0-0.682,0.54-1.365,1.615-1.365h69.762c1.078,0,2.156,0.911,2.156,2.049v56.652c0,0.909-0.538,1.365-1.348,1.365
				c-1.076,0-1.883-0.683-2.154-1.593l-14.545-42.773c-1.078-2.958-3.502-4.323-7.003-4.323h-15.352V1015.358z"/>
			<path style="fill:#F7F7F7;" d="M1098.581,937.319c2.423,0,3.502,1.593,3.771,3.869l17.776,98.515h0.54l16.431-98.515
				c0.268-2.275,1.076-3.869,2.962-3.869h33.669c1.078,0,1.615,0.683,1.615,1.139c0,0.91-1.078,1.593-1.885,2.275l-6.733,6.598
				c-1.616,1.819-2.154,3.64-2.154,6.37v137.875c0,2.731,0.538,4.551,2.154,6.371l6.733,6.598c0.808,0.683,1.885,1.365,1.885,2.275
				c0,0.454-0.538,1.137-1.615,1.137h-37.709c-1.348,0-1.616-0.683-1.616-1.137c0-0.91,1.076-1.593,1.886-2.504l5.655-6.144
				c1.616-1.819,1.886-3.866,1.886-6.598V981.459h-0.54l-20.471,124.678c-0.27,1.139-0.807,1.822-2.154,1.822h-5.927
				c-0.808,0-1.076-0.911-1.346-2.048l-21.819-124.452h-0.538v110.117c0,2.731,0.27,4.779,1.886,6.598l5.656,6.144
				c0.807,0.911,1.885,1.593,1.885,2.504c0,0.454-0.538,1.137-1.616,1.137h-33.131c-1.076,0-1.616-0.683-1.616-1.137
				c0-0.91,1.348-1.593,1.886-2.275l6.734-6.598c1.616-1.821,2.424-3.64,2.424-6.371V953.701c0-2.73-0.808-4.551-2.424-6.37
				l-6.734-6.598c-0.538-0.682-1.886-1.365-1.886-2.275c0-0.456,0.54-1.139,1.616-1.139H1098.581z"/>
			<path style="fill:#F7F7F7;" d="M1239.722,1069.962c-0.267-1.136-1.075-2.048-2.423-2.048h-19.932
				c-0.808,0-1.346,0.683-1.616,1.593l-4.039,25.026c-0.27,1.593,0.27,2.958,1.346,4.097l5.926,5.233
				c1.078,1.137,2.694,2.047,2.694,2.73c0,0.682-0.538,1.365-1.884,1.365h-30.975c-1.078,0-1.618-0.683-1.618-1.365
				c0-0.683,1.078-1.593,1.886-2.276l7.541-6.37c1.618-1.365,1.886-3.64,2.156-5.688l24.512-152.891
				c0.268-1.138,0.808-2.049,2.154-2.049h9.965c1.348,0,2.155,1.139,2.425,2.504l25.588,152.664c0.27,2.275,1.078,4.779,2.964,6.144
				l7.809,5.915c0.81,0.683,1.618,1.365,1.618,2.048c0,0.682-0.54,1.365-1.886,1.365h-38.786c-1.348,0-1.886-0.683-1.886-1.365
				c0-0.683,1.078-1.365,1.886-2.048l7.271-6.144c1.078-0.91,1.615-2.501,1.348-4.551L1239.722,1069.962z M1235.953,1055.857
				c0.808,0,1.346-0.684,1.078-1.593l-9.429-55.743h-0.538l-8.889,55.969c-0.268,0.91,0.27,1.366,0.808,1.366H1235.953z"/>
		</g>
		<g>
			<path style="fill:#F7F7F7;" d="M819.27,1150.78h-9.965c-1.618,0-2.426,1.139-2.964,2.504l-14.007,45.276
				c-0.268,0.909-1.078,1.365-2.154,1.365c-1.078,0-1.348-0.456-1.348-1.592v-57.562c0-0.455,0.54-0.91,1.348-0.91H869.1
				c0.807,0,1.348,0.456,1.348,0.91v57.562c0,1.137-0.27,1.592-1.348,1.592c-1.078,0-1.886-0.456-2.154-1.365l-14.007-45.276
				c-0.538-1.365-1.348-2.504-2.963-2.504h-9.965v143.336c0,2.731,0.27,4.779,2.154,6.372l8.081,6.598
				c0.808,0.682,1.886,1.365,1.886,2.047c0,0.683-0.27,1.365-1.615,1.365h-41.75c-1.346,0-1.616-0.682-1.616-1.365
				c0-0.682,1.078-1.365,1.886-2.047l8.079-6.598c1.886-1.593,2.156-3.641,2.156-6.372V1150.78z"/>
			<path style="fill:#F7F7F7;" d="M897.381,1156.241c0-2.73-0.538-4.779-2.424-6.37l-8.081-6.598
				c-0.538-0.683-1.886-1.365-1.886-2.049c0-0.683,0.54-1.365,1.616-1.365h42.288c1.078,0,1.616,0.682,1.616,1.365
				c0,0.684-1.346,1.366-1.883,2.049l-8.082,6.598c-1.886,1.591-2.423,3.64-2.423,6.37v137.874c0,2.731,0.538,4.779,2.423,6.372
				l8.082,6.598c0.538,0.682,1.883,1.365,1.883,2.047c0,0.683-0.538,1.365-1.616,1.365h-42.288c-1.076,0-1.616-0.682-1.616-1.365
				c0-0.682,1.348-1.365,1.886-2.047l8.081-6.598c1.886-1.593,2.424-3.641,2.424-6.372V1156.241z"/>
			<path style="fill:#F7F7F7;" d="M975.492,1150.78h-9.965c-1.618,0-2.426,1.139-2.964,2.504l-14.007,45.276
				c-0.268,0.909-1.078,1.365-2.154,1.365c-1.078,0-1.348-0.456-1.348-1.592v-57.562c0-0.455,0.54-0.91,1.348-0.91h78.919
				c0.807,0,1.348,0.456,1.348,0.91v57.562c0,1.137-0.27,1.592-1.348,1.592c-1.078,0-1.886-0.456-2.154-1.365l-14.007-45.276
				c-0.538-1.365-1.348-2.504-2.964-2.504h-9.965v143.336c0,2.731,0.27,4.779,2.154,6.372l8.081,6.598
				c0.808,0.682,1.886,1.365,1.886,2.047c0,0.683-0.27,1.365-1.615,1.365h-41.75c-1.346,0-1.616-0.682-1.616-1.365
				c0-0.682,1.078-1.365,1.886-2.047l8.08-6.598c1.886-1.593,2.156-3.641,2.156-6.372V1150.78z"/>
			<path style="fill:#F7F7F7;" d="M1053.605,1156.241c0-2.73-0.54-4.779-2.423-6.37l-8.082-6.598
				c-0.538-0.683-1.886-1.365-1.886-2.049c0-0.683,0.54-1.365,1.616-1.365h42.288c1.078,0,1.616,0.682,1.616,1.365
				c0,0.684-1.346,1.366-1.884,2.049l-8.081,6.598c-1.886,1.591-2.424,3.64-2.424,6.37v142.881h10.773
				c3.233,0,5.926-0.683,7.003-3.414l16.701-44.138c0.538-0.91,0.538-1.593,1.615-1.593c0.808,0,1.347,0.682,1.347,1.593v55.741
				c0,2.049-0.808,3.186-2.962,3.186h-65.992c-1.076,0-1.616-0.682-1.616-1.365c0-0.682,1.348-1.139,1.886-2.047l8.082-6.598
				c1.883-1.593,2.423-3.641,2.423-6.372V1156.241z"/>
			<path style="fill:#F7F7F7;" d="M1162.689,1217.898h5.926c1.346,0,2.423-0.454,2.963-1.593l9.427-15.926
				c0.538-0.91,0.808-1.365,1.616-1.365c0.808,0,1.075,0.455,1.075,1.365v48.234c0,0.682-0.267,1.137-1.075,1.137
				c-1.078,0-1.348-0.682-1.886-1.591l-9.158-16.61c-0.54-1.136-1.618-1.591-2.963-1.591h-5.926v69.165h15.352
				c3.502,0,6.196-1.365,7.274-4.097l14.545-43.683c0.267-0.91,1.075-1.365,1.883-1.365c0.81,0,1.348,0.682,1.348,1.365v57.108
				c0,1.136-0.808,2.047-2.156,2.047h-69.762c-1.075,0-1.615-0.682-1.615-1.365c0-0.682,1.348-1.139,1.886-2.047l8.082-6.598
				c1.883-1.593,2.423-3.641,2.423-6.372v-137.874c0-2.73-0.54-4.779-2.423-6.37l-8.082-6.598c-0.538-0.683-1.886-1.365-1.886-2.049
				c0-0.683,0.54-1.365,1.615-1.365h69.762c1.078,0,2.156,0.91,2.156,2.049v56.651c0,0.909-0.538,1.365-1.348,1.365
				c-1.076,0-1.883-0.682-2.154-1.592l-14.545-42.773c-1.078-2.957-3.502-4.322-7.003-4.322h-15.352V1217.898z"/>
		</g>
	</g>
	<g>
		<defs>
			<rect id="SVGID_1_" width="2121.32" height="2121.32"/>
		</defs>
		<clipPath id="SVGID_00000024680561751757523180000004641494696311060374_">
			<use xlink:href="#SVGID_1_"  style="overflow:visible;"/>
		</clipPath>
		<g style="clip-path:url(#SVGID_00000024680561751757523180000004641494696311060374_);">
			<path style="fill:#FF5E6B;" d="M-444.848,1018.506l-7.021-2.23c125.181-393.961,465.852-710.596,867.901-806.67
				c230.869-55.171,473.563-40.771,708.272-26.838c19.328,1.148,38.641,2.294,57.926,3.402
				c251.815,14.447,517.821,21.291,758.667-65.784c266.524-96.363,457.277-308.173,485.978-539.613l7.308,0.907
				c-29.031,234.163-221.676,448.336-490.783,545.633c-242.155,87.55-509.031,80.717-761.587,66.209
				c-19.292-1.108-38.612-2.252-57.947-3.402c-234.148-13.894-476.288-28.269-706.121,26.65
				C18.155,312.255-320.436,626.956-444.848,1018.506z"/>
		</g>
		<g style="clip-path:url(#SVGID_00000024680561751757523180000004641494696311060374_);">
			<path style="fill:#00A6FF;" d="M71.787,2224.312l-7.15-1.784c41.568-166.196,219.539-250.412,359.315-272.031
				c91.122-14.098,184.855-11.286,275.48-8.57c64.96,1.953,132.122,3.96,197.831-0.267c186.013-11.969,365.789-73.725,519.9-178.586
				c30.966-21.068,61.313-44.198,90.661-66.568c38.857-29.614,79.037-60.234,121.246-86.551
				c88.13-54.944,171.641-80.414,248.125-75.649c95.395,5.909,192.616,59.347,288.953,158.819
				c28.844,29.779,56.386,61.749,83.03,92.661c45.065,52.294,91.661,106.367,145.551,150.95
				c47.302,39.127,171.749,126.134,305.799,89.204l1.957,7.1c-96.747,26.654-210.613-6.374-312.445-90.629
				c-54.372-44.979-101.177-99.293-146.443-151.817c-26.571-30.833-54.049-62.72-82.742-92.348
				c-95.013-98.11-190.609-150.796-284.119-156.589c-74.836-4.626-156.959,20.432-243.766,74.549
				c-41.921,26.132-81.957,56.649-120.678,86.158c-29.427,22.429-59.854,45.619-90.985,66.802
				c-155.197,105.597-336.247,167.789-523.569,179.844c-66.039,4.243-133.388,2.233-198.528,0.277
				c-90.294-2.708-183.675-5.51-274.134,8.488C287.528,1979.053,112.47,2061.622,71.787,2224.312z"/>
		</g>
	</g>
</g>
</svg>
